<svg width="20" height="20" viewBox="0 0 20 20" fill="none" xmlns="http://www.w3.org/2000/svg">
<path d="M19.375 9.6875C19.375 15.0391 15 19.375 9.68751 19.375C4.33595 19.375 1.23978e-05 15.0391 1.23978e-05 9.6875C1.23978e-05 4.375 4.33595 0 9.68751 0C15 0 19.375 4.375 19.375 9.6875ZM8.5547 14.8438L15.7422 7.65625C15.9766 7.42188 15.9766 6.99219 15.7422 6.75781L14.8438 5.89844C14.6094 5.625 14.2188 5.625 13.9844 5.89844L8.12501 11.7578L5.35157 9.02344C5.1172 8.75 4.72657 8.75 4.4922 9.02344L3.59376 9.88281C3.35939 10.1172 3.35939 10.5469 3.59376 10.7812L7.65626 14.8438C7.89064 15.0781 8.32032 15.0781 8.5547 14.8438Z" fill="#0B3334"/>
</svg>
